# xmcd CD database file
#
# Track frame offsets:
#	150
#	11945
#	30517
#	49265
#	61287
#	75425
#	87207
#	104337
#	120215
#	131075
#
# Disc length: 1943 seconds
#
# Revision: 2
# Processed by: cddbd v1.5.2PL0 Copyright (c) Steve Scherf et al.
# Submitted via: CDex 1.60beta1
#
DISCID=7607950a
DTITLE=Ken Holloway - Ken Holloway
DYEAR=1994
DGENRE=Country
TTITLE0=You can't draw water from a dry well
TTITLE1=Runs in the Blood
TTITLE2=Abel and Cain
TTITLE3=Up on your way down
TTITLE4=Family Tree
TTITLE5=Unplug the Jukebox
TTITLE6=He Loved us to Death
TTITLE7=Trailer Hitch
TTITLE8=Rose of Sharon
TTITLE9=I can't even walk
EXTD=YEAR: 1994
EXTT0=
EXTT1=
EXTT2=
EXTT3=
EXTT4=
EXTT5=
EXTT6=
EXTT7=
EXTT8=
EXTT9=
PLAYORDER=
